<svg width="20" height="20" viewBox="0 0 20 20" fill="none" xmlns="http://www.w3.org/2000/svg">
<path d="M10.923 2.79249L12.3232 5.59291C12.5142 5.98274 13.0233 6.35666 13.4529 6.42826L15.9908 6.84991C17.6138 7.12041 17.9957 8.29785 16.8262 9.45939L14.8531 11.4324C14.519 11.7666 14.336 12.411 14.4394 12.8724L15.0043 15.3148C15.4498 17.248 14.4235 17.9959 12.7131 16.9855L10.3343 15.5773C9.90468 15.3228 9.19662 15.3228 8.75906 15.5773L6.3803 16.9855C4.67777 17.9959 3.64353 17.2401 4.08905 15.3148L4.6539 12.8724C4.75733 12.411 4.57435 11.7666 4.24021 11.4324L2.26718 9.45939C1.10565 8.29785 1.47957 7.12041 3.10254 6.84991L5.64041 6.42826C6.06207 6.35666 6.57123 5.98274 6.76217 5.59291L8.16238 2.79249C8.92613 1.27295 10.1672 1.27295 10.923 2.79249Z" fill="#FFC869"/>
</svg>
